<mxfile host="Electron" modified="2024-01-04T02:42:32.166Z" agent="Mozilla/5.0 (Windows NT 10.0; Win64; x64) AppleWebKit/537.36 (KHTML, like Gecko) draw.io/22.1.11 Chrome/114.0.5735.289 Electron/25.9.8 Safari/537.36" etag="0C94NOudOczzv-6-mhzs" version="22.1.11" type="device">
  <diagram name="第 1 页" id="3XHzoXNPEqUUg4LmMVM3">
    <mxGraphModel dx="1434" dy="844" grid="1" gridSize="10" guides="1" tooltips="1" connect="1" arrows="1" fold="1" page="1" pageScale="1" pageWidth="827" pageHeight="1169" math="0" shadow="0">
      <root>
        <mxCell id="0" />
        <mxCell id="1" parent="0" />
        <mxCell id="covPFfoZ6uyWDQUV8K9O-1" value="GameStateInfoUI" style="shape=umlLifeline;perimeter=lifelinePerimeter;whiteSpace=wrap;html=1;container=1;dropTarget=0;collapsible=0;recursiveResize=0;outlineConnect=0;portConstraint=eastwest;newEdgeStyle={&quot;curved&quot;:0,&quot;rounded&quot;:0};" vertex="1" parent="1">
          <mxGeometry y="240" width="100" height="600" as="geometry" />
        </mxCell>
        <mxCell id="covPFfoZ6uyWDQUV8K9O-9" value="" style="html=1;points=[[0,0,0,0,5],[0,1,0,0,-5],[1,0,0,0,5],[1,1,0,0,-5]];perimeter=orthogonalPerimeter;outlineConnect=0;targetShapes=umlLifeline;portConstraint=eastwest;newEdgeStyle={&quot;curved&quot;:0,&quot;rounded&quot;:0};" vertex="1" parent="covPFfoZ6uyWDQUV8K9O-1">
          <mxGeometry x="45" y="100" width="10" height="490" as="geometry" />
        </mxCell>
        <mxCell id="covPFfoZ6uyWDQUV8K9O-41" value="" style="html=1;points=[[0,0,0,0,5],[0,1,0,0,-5],[1,0,0,0,5],[1,1,0,0,-5]];perimeter=orthogonalPerimeter;outlineConnect=0;targetShapes=umlLifeline;portConstraint=eastwest;newEdgeStyle={&quot;curved&quot;:0,&quot;rounded&quot;:0};" vertex="1" parent="covPFfoZ6uyWDQUV8K9O-1">
          <mxGeometry x="50" y="470" width="10" height="30" as="geometry" />
        </mxCell>
        <mxCell id="covPFfoZ6uyWDQUV8K9O-46" value="" style="html=1;points=[[0,0,0,0,5],[0,1,0,0,-5],[1,0,0,0,5],[1,1,0,0,-5]];perimeter=orthogonalPerimeter;outlineConnect=0;targetShapes=umlLifeline;portConstraint=eastwest;newEdgeStyle={&quot;curved&quot;:0,&quot;rounded&quot;:0};" vertex="1" parent="covPFfoZ6uyWDQUV8K9O-1">
          <mxGeometry x="50" y="540" width="10" height="40" as="geometry" />
        </mxCell>
        <mxCell id="covPFfoZ6uyWDQUV8K9O-47" value="13: ShowCount" style="html=1;align=left;spacingLeft=2;endArrow=block;rounded=0;edgeStyle=orthogonalEdgeStyle;curved=0;rounded=0;" edge="1" target="covPFfoZ6uyWDQUV8K9O-46" parent="covPFfoZ6uyWDQUV8K9O-1">
          <mxGeometry relative="1" as="geometry">
            <mxPoint x="55" y="520" as="sourcePoint" />
            <Array as="points">
              <mxPoint x="85" y="550" />
            </Array>
          </mxGeometry>
        </mxCell>
        <mxCell id="covPFfoZ6uyWDQUV8K9O-2" value="UnitCountVisitor" style="shape=umlLifeline;perimeter=lifelinePerimeter;whiteSpace=wrap;html=1;container=1;dropTarget=0;collapsible=0;recursiveResize=0;outlineConnect=0;portConstraint=eastwest;newEdgeStyle={&quot;curved&quot;:0,&quot;rounded&quot;:0};" vertex="1" parent="1">
          <mxGeometry x="120" y="240" width="105" height="600" as="geometry" />
        </mxCell>
        <mxCell id="covPFfoZ6uyWDQUV8K9O-6" value="" style="html=1;points=[[0,0,0,0,5],[0,1,0,0,-5],[1,0,0,0,5],[1,1,0,0,-5]];perimeter=orthogonalPerimeter;outlineConnect=0;targetShapes=umlLifeline;portConstraint=eastwest;newEdgeStyle={&quot;curved&quot;:0,&quot;rounded&quot;:0};" vertex="1" parent="covPFfoZ6uyWDQUV8K9O-2">
          <mxGeometry x="45" y="70" width="10" height="40" as="geometry" />
        </mxCell>
        <mxCell id="covPFfoZ6uyWDQUV8K9O-20" value="" style="html=1;points=[[0,0,0,0,5],[0,1,0,0,-5],[1,0,0,0,5],[1,1,0,0,-5]];perimeter=orthogonalPerimeter;outlineConnect=0;targetShapes=umlLifeline;portConstraint=eastwest;newEdgeStyle={&quot;curved&quot;:0,&quot;rounded&quot;:0};" vertex="1" parent="covPFfoZ6uyWDQUV8K9O-2">
          <mxGeometry x="45" y="190" width="10" height="190" as="geometry" />
        </mxCell>
        <mxCell id="covPFfoZ6uyWDQUV8K9O-24" value="" style="html=1;points=[[0,0,0,0,5],[0,1,0,0,-5],[1,0,0,0,5],[1,1,0,0,-5]];perimeter=orthogonalPerimeter;outlineConnect=0;targetShapes=umlLifeline;portConstraint=eastwest;newEdgeStyle={&quot;curved&quot;:0,&quot;rounded&quot;:0};" vertex="1" parent="covPFfoZ6uyWDQUV8K9O-2">
          <mxGeometry x="50" y="240" width="10" height="110" as="geometry" />
        </mxCell>
        <mxCell id="covPFfoZ6uyWDQUV8K9O-25" value="7: VisitSoldier" style="html=1;align=left;spacingLeft=2;endArrow=block;rounded=0;edgeStyle=orthogonalEdgeStyle;curved=0;rounded=0;" edge="1" target="covPFfoZ6uyWDQUV8K9O-24" parent="covPFfoZ6uyWDQUV8K9O-2">
          <mxGeometry relative="1" as="geometry">
            <mxPoint x="55" y="220" as="sourcePoint" />
            <Array as="points">
              <mxPoint x="85" y="250" />
            </Array>
          </mxGeometry>
        </mxCell>
        <mxCell id="covPFfoZ6uyWDQUV8K9O-26" value="" style="html=1;points=[[0,0,0,0,5],[0,1,0,0,-5],[1,0,0,0,5],[1,1,0,0,-5]];perimeter=orthogonalPerimeter;outlineConnect=0;targetShapes=umlLifeline;portConstraint=eastwest;newEdgeStyle={&quot;curved&quot;:0,&quot;rounded&quot;:0};" vertex="1" parent="covPFfoZ6uyWDQUV8K9O-2">
          <mxGeometry x="55" y="290" width="10" height="40" as="geometry" />
        </mxCell>
        <mxCell id="covPFfoZ6uyWDQUV8K9O-27" value="8: VisitCharacter" style="html=1;align=left;spacingLeft=2;endArrow=block;rounded=0;edgeStyle=orthogonalEdgeStyle;curved=0;rounded=0;" edge="1" target="covPFfoZ6uyWDQUV8K9O-26" parent="covPFfoZ6uyWDQUV8K9O-2">
          <mxGeometry relative="1" as="geometry">
            <mxPoint x="60" y="270" as="sourcePoint" />
            <Array as="points">
              <mxPoint x="90" y="300" />
            </Array>
          </mxGeometry>
        </mxCell>
        <mxCell id="covPFfoZ6uyWDQUV8K9O-3" value="PBaseDefenGame" style="shape=umlLifeline;perimeter=lifelinePerimeter;whiteSpace=wrap;html=1;container=1;dropTarget=0;collapsible=0;recursiveResize=0;outlineConnect=0;portConstraint=eastwest;newEdgeStyle={&quot;curved&quot;:0,&quot;rounded&quot;:0};" vertex="1" parent="1">
          <mxGeometry x="240" y="240" width="120" height="600" as="geometry" />
        </mxCell>
        <mxCell id="covPFfoZ6uyWDQUV8K9O-11" value="" style="html=1;points=[[0,0,0,0,5],[0,1,0,0,-5],[1,0,0,0,5],[1,1,0,0,-5]];perimeter=orthogonalPerimeter;outlineConnect=0;targetShapes=umlLifeline;portConstraint=eastwest;newEdgeStyle={&quot;curved&quot;:0,&quot;rounded&quot;:0};" vertex="1" parent="covPFfoZ6uyWDQUV8K9O-3">
          <mxGeometry x="55" y="130" width="10" height="350" as="geometry" />
        </mxCell>
        <mxCell id="covPFfoZ6uyWDQUV8K9O-38" value="" style="html=1;points=[[0,0,0,0,5],[0,1,0,0,-5],[1,0,0,0,5],[1,1,0,0,-5]];perimeter=orthogonalPerimeter;outlineConnect=0;targetShapes=umlLifeline;portConstraint=eastwest;newEdgeStyle={&quot;curved&quot;:0,&quot;rounded&quot;:0};" vertex="1" parent="covPFfoZ6uyWDQUV8K9O-3">
          <mxGeometry x="60" y="442" width="10" height="28" as="geometry" />
        </mxCell>
        <mxCell id="covPFfoZ6uyWDQUV8K9O-4" value="CharacterSystem" style="shape=umlLifeline;perimeter=lifelinePerimeter;whiteSpace=wrap;html=1;container=1;dropTarget=0;collapsible=0;recursiveResize=0;outlineConnect=0;portConstraint=eastwest;newEdgeStyle={&quot;curved&quot;:0,&quot;rounded&quot;:0};" vertex="1" parent="1">
          <mxGeometry x="380" y="240" width="100" height="600" as="geometry" />
        </mxCell>
        <mxCell id="covPFfoZ6uyWDQUV8K9O-13" value="" style="html=1;points=[[0,0,0,0,5],[0,1,0,0,-5],[1,0,0,0,5],[1,1,0,0,-5]];perimeter=orthogonalPerimeter;outlineConnect=0;targetShapes=umlLifeline;portConstraint=eastwest;newEdgeStyle={&quot;curved&quot;:0,&quot;rounded&quot;:0};" vertex="1" parent="covPFfoZ6uyWDQUV8K9O-4">
          <mxGeometry x="45" y="150" width="10" height="300" as="geometry" />
        </mxCell>
        <mxCell id="covPFfoZ6uyWDQUV8K9O-35" value="" style="html=1;points=[[0,0,0,0,5],[0,1,0,0,-5],[1,0,0,0,5],[1,1,0,0,-5]];perimeter=orthogonalPerimeter;outlineConnect=0;targetShapes=umlLifeline;portConstraint=eastwest;newEdgeStyle={&quot;curved&quot;:0,&quot;rounded&quot;:0};" vertex="1" parent="covPFfoZ6uyWDQUV8K9O-4">
          <mxGeometry x="50" y="410" width="10" height="30" as="geometry" />
        </mxCell>
        <mxCell id="covPFfoZ6uyWDQUV8K9O-5" value="SoldierCaptain" style="shape=umlLifeline;perimeter=lifelinePerimeter;whiteSpace=wrap;html=1;container=1;dropTarget=0;collapsible=0;recursiveResize=0;outlineConnect=0;portConstraint=eastwest;newEdgeStyle={&quot;curved&quot;:0,&quot;rounded&quot;:0};" vertex="1" parent="1">
          <mxGeometry x="500" y="240" width="100" height="600" as="geometry" />
        </mxCell>
        <mxCell id="covPFfoZ6uyWDQUV8K9O-18" value="" style="html=1;points=[[0,0,0,0,5],[0,1,0,0,-5],[1,0,0,0,5],[1,1,0,0,-5]];perimeter=orthogonalPerimeter;outlineConnect=0;targetShapes=umlLifeline;portConstraint=eastwest;newEdgeStyle={&quot;curved&quot;:0,&quot;rounded&quot;:0};" vertex="1" parent="covPFfoZ6uyWDQUV8K9O-5">
          <mxGeometry x="45" y="160" width="10" height="260" as="geometry" />
        </mxCell>
        <mxCell id="covPFfoZ6uyWDQUV8K9O-30" value="" style="html=1;points=[[0,0,0,0,5],[0,1,0,0,-5],[1,0,0,0,5],[1,1,0,0,-5]];perimeter=orthogonalPerimeter;outlineConnect=0;targetShapes=umlLifeline;portConstraint=eastwest;newEdgeStyle={&quot;curved&quot;:0,&quot;rounded&quot;:0};" vertex="1" parent="covPFfoZ6uyWDQUV8K9O-5">
          <mxGeometry x="50" y="370" width="10" height="30" as="geometry" />
        </mxCell>
        <mxCell id="covPFfoZ6uyWDQUV8K9O-7" value="1: New" style="html=1;verticalAlign=bottom;endArrow=block;curved=0;rounded=0;entryX=0;entryY=0;entryDx=0;entryDy=5;" edge="1" target="covPFfoZ6uyWDQUV8K9O-6" parent="1" source="covPFfoZ6uyWDQUV8K9O-1">
          <mxGeometry relative="1" as="geometry">
            <mxPoint x="95" y="315" as="sourcePoint" />
          </mxGeometry>
        </mxCell>
        <mxCell id="covPFfoZ6uyWDQUV8K9O-8" value="2: Message1" style="html=1;verticalAlign=bottom;endArrow=open;endSize=8;curved=0;rounded=0;exitX=0;exitY=1;exitDx=0;exitDy=-5;endFill=0;" edge="1" source="covPFfoZ6uyWDQUV8K9O-6" parent="1" target="covPFfoZ6uyWDQUV8K9O-9">
          <mxGeometry relative="1" as="geometry">
            <mxPoint x="110" y="400" as="targetPoint" />
          </mxGeometry>
        </mxCell>
        <mxCell id="covPFfoZ6uyWDQUV8K9O-12" value="3: RunCharacterVisitor" style="html=1;verticalAlign=bottom;startArrow=none;endArrow=block;startSize=8;curved=0;rounded=0;entryX=0;entryY=0;entryDx=0;entryDy=5;startFill=0;" edge="1" target="covPFfoZ6uyWDQUV8K9O-11" parent="1" source="covPFfoZ6uyWDQUV8K9O-9">
          <mxGeometry relative="1" as="geometry">
            <mxPoint x="225" y="375" as="sourcePoint" />
          </mxGeometry>
        </mxCell>
        <mxCell id="covPFfoZ6uyWDQUV8K9O-14" value="4: RunVisitor" style="html=1;verticalAlign=bottom;startArrow=none;endArrow=block;startSize=8;curved=0;rounded=0;entryX=0;entryY=0;entryDx=0;entryDy=5;startFill=0;" edge="1" target="covPFfoZ6uyWDQUV8K9O-13" parent="1">
          <mxGeometry relative="1" as="geometry">
            <mxPoint x="305" y="395" as="sourcePoint" />
          </mxGeometry>
        </mxCell>
        <mxCell id="covPFfoZ6uyWDQUV8K9O-19" value="5: RunVisitor" style="html=1;verticalAlign=bottom;startArrow=none;endArrow=block;startSize=8;curved=0;rounded=0;entryX=0;entryY=0;entryDx=0;entryDy=5;startFill=0;" edge="1" target="covPFfoZ6uyWDQUV8K9O-18" parent="1" source="covPFfoZ6uyWDQUV8K9O-13">
          <mxGeometry relative="1" as="geometry">
            <mxPoint x="475" y="405" as="sourcePoint" />
          </mxGeometry>
        </mxCell>
        <mxCell id="covPFfoZ6uyWDQUV8K9O-21" value="6: VisitSoldierCaptain" style="html=1;verticalAlign=bottom;startArrow=block;startFill=1;endArrow=none;startSize=8;curved=0;rounded=0;exitX=1;exitY=0;exitDx=0;exitDy=5;exitPerimeter=0;endFill=0;" edge="1" parent="1" source="covPFfoZ6uyWDQUV8K9O-20" target="covPFfoZ6uyWDQUV8K9O-18">
          <mxGeometry width="60" relative="1" as="geometry">
            <mxPoint x="480" y="435" as="sourcePoint" />
            <mxPoint x="540" y="435" as="targetPoint" />
            <mxPoint as="offset" />
          </mxGeometry>
        </mxCell>
        <mxCell id="covPFfoZ6uyWDQUV8K9O-31" value="9: Return" style="html=1;verticalAlign=bottom;startArrow=none;endArrow=open;startSize=8;curved=0;rounded=0;entryX=0;entryY=0;entryDx=0;entryDy=5;exitX=1;exitY=1;exitDx=0;exitDy=-5;exitPerimeter=0;startFill=0;endFill=0;" edge="1" target="covPFfoZ6uyWDQUV8K9O-30" parent="1" source="covPFfoZ6uyWDQUV8K9O-20">
          <mxGeometry relative="1" as="geometry">
            <mxPoint x="480" y="615" as="sourcePoint" />
          </mxGeometry>
        </mxCell>
        <mxCell id="covPFfoZ6uyWDQUV8K9O-36" value="10: Return" style="html=1;verticalAlign=bottom;endArrow=open;curved=0;rounded=0;entryX=1;entryY=0;entryDx=0;entryDy=5;exitX=0;exitY=1;exitDx=0;exitDy=-5;exitPerimeter=0;endFill=0;" edge="1" target="covPFfoZ6uyWDQUV8K9O-35" parent="1" source="covPFfoZ6uyWDQUV8K9O-18">
          <mxGeometry x="0.0095" relative="1" as="geometry">
            <mxPoint x="510" y="655" as="sourcePoint" />
            <mxPoint as="offset" />
          </mxGeometry>
        </mxCell>
        <mxCell id="covPFfoZ6uyWDQUV8K9O-39" value="11: Return" style="html=1;verticalAlign=bottom;endArrow=open;curved=0;rounded=0;entryX=1;entryY=0;entryDx=0;entryDy=5;exitX=0;exitY=1;exitDx=0;exitDy=-5;exitPerimeter=0;endFill=0;" edge="1" target="covPFfoZ6uyWDQUV8K9O-38" parent="1" source="covPFfoZ6uyWDQUV8K9O-13">
          <mxGeometry x="0.0085" relative="1" as="geometry">
            <mxPoint x="380" y="687" as="sourcePoint" />
            <mxPoint as="offset" />
          </mxGeometry>
        </mxCell>
        <mxCell id="covPFfoZ6uyWDQUV8K9O-42" value="12: Return" style="html=1;verticalAlign=bottom;endArrow=open;curved=0;rounded=0;entryX=1;entryY=0;entryDx=0;entryDy=5;exitX=0;exitY=1;exitDx=0;exitDy=-5;exitPerimeter=0;endFill=0;" edge="1" target="covPFfoZ6uyWDQUV8K9O-41" parent="1" source="covPFfoZ6uyWDQUV8K9O-11">
          <mxGeometry relative="1" as="geometry">
            <mxPoint x="125" y="715" as="sourcePoint" />
          </mxGeometry>
        </mxCell>
      </root>
    </mxGraphModel>
  </diagram>
</mxfile>
